# xmcd
#
# Track frame offsets: 
#        150
#        26418
#        49664
#        67775
#        85110
#        102532
#        120719
#        139879
#        158752
#        178744
#
# Disc length: 2597 seconds
#
# Revision: 0
# Processed by: cddbd v1.5.2PL0 Copyright (c) Steve Scherf et al.
# Submitted via: ExactAudioCopyFreeDBPlugin 1.0
#
DISCID=7e0a230a
DTITLE=FOS - Gravity
DYEAR=2014
DGENRE=Rock
TTITLE0=Gravity
TTITLE1=Tomorrow
TTITLE2=Who Wants to Know
TTITLE3=Dancin in the Rain
TTITLE4=Welcome to My World
TTITLE5=Emily
TTITLE6=So Easy
TTITLE7=Ball and Coin
TTITLE8=Gimme Some Good
TTITLE9=Follow the Rainbow
EXTD=
EXTT0=
EXTT1=
EXTT2=
EXTT3=
EXTT4=
EXTT5=
EXTT6=
EXTT7=
EXTT8=
EXTT9=
PLAYORDER=
